HIERARCHY
ROOT Hips
{
	OFFSET 0.000000 100.481300 0.000000
	CHANNELS 6 Xposition Yposition Zposition Xrotation Yrotation Zrotation 
	JOINT Spine
	{
		OFFSET -0.279200 12.230698 -2.892100
		CHANNELS 3 Xrotation Yrotation Zrotation
		JOINT Spine1
		{
			OFFSET -0.232667 10.192268 -1.242267
			CHANNELS 3 Xrotation Yrotation Zrotation
			JOINT Spine1_split
			{
				OFFSET -0.232667 10.192268 -1.242267
				CHANNELS 3 Xrotation Yrotation Zrotation
				JOINT Spine2
				{
					OFFSET -0.232667 10.192268 -1.242267
					CHANNELS 3 Xrotation Yrotation Zrotation
					JOINT Neck
					{
						OFFSET -0.418800 17.814194 8.416900
						CHANNELS 3 Xrotation Yrotation Zrotation
						JOINT Head
						{
							OFFSET 0.000000 7.031097 3.806800
							CHANNELS 3 Xrotation Yrotation Zrotation
							JOINT HeadTop_End
							{
								OFFSET 0.000000 24.646606 12.978600
								CHANNELS 3 Xrotation Yrotation Zrotation
								End Site
								{
									OFFSET 0.000000 0.000000 0.000000
								}
							}
						}
					}
					JOINT LeftShoulder
					{
						OFFSET 8.476499 7.247704 -3.868750
						CHANNELS 3 Xrotation Yrotation Zrotation
						JOINT LeftShoulder_split
						{
							OFFSET 8.476499 7.247704 -3.868750
							CHANNELS 3 Xrotation Yrotation Zrotation
							JOINT LeftArm
							{
								OFFSET 9.308998 -2.777710 0.208600
								CHANNELS 3 Xrotation Yrotation Zrotation
								JOINT LeftForeArm
								{
									OFFSET 29.972298 0.000000 0.000000
									CHANNELS 3 Xrotation Yrotation Zrotation
									JOINT LeftHand
									{
										OFFSET 26.026505 0.000000 0.000000
										CHANNELS 3 Xrotation Yrotation Zrotation
										JOINT LeftHandThumb1
										{
											OFFSET 12.240501 -7.147949 9.207150
											CHANNELS 3 Xrotation Yrotation Zrotation
											JOINT LeftHandThumb2
											{
												OFFSET 4.138618 -2.389435 2.389433
												CHANNELS 3 Xrotation Yrotation Zrotation
												JOINT LeftHandThumb3
												{
													OFFSET 2.726913 -1.574387 1.574386
													CHANNELS 3 Xrotation Yrotation Zrotation
													JOINT LeftHandThumb4
													{
														OFFSET 3.941010 -2.275345 2.275342
														CHANNELS 3 Xrotation Yrotation Zrotation
														End Site
														{
															OFFSET 0.000000 0.000000 0.000000
														}
													}
												}
											}
										}
										JOINT LeftHandIndex1
										{
											OFFSET 24.424698 -1.985611 5.953459
											CHANNELS 3 Xrotation Yrotation Zrotation
											JOINT LeftHandIndex2
											{
												OFFSET 6.426697 0.000000 0.000000
												CHANNELS 3 Xrotation Yrotation Zrotation
												JOINT LeftHandIndex3
												{
													OFFSET 5.337898 0.000000 0.000000
													CHANNELS 3 Xrotation Yrotation Zrotation
													JOINT LeftHandIndex4
													{
														OFFSET 4.409401 0.000000 0.000000
														CHANNELS 3 Xrotation Yrotation Zrotation
														End Site
														{
															OFFSET 0.000000 0.000000 0.000000
														}
													}
												}
											}
										}
										JOINT LeftHandMiddle1
										{
											OFFSET 23.810104 0.000000 0.000000
											CHANNELS 3 Xrotation Yrotation Zrotation
											JOINT LeftHandMiddle2
											{
												OFFSET 7.176498 0.000000 0.000000
												CHANNELS 3 Xrotation Yrotation Zrotation
												JOINT LeftHandMiddle3
												{
													OFFSET 6.774902 0.000000 0.000000
													CHANNELS 3 Xrotation Yrotation Zrotation
													JOINT LeftHandMiddle4
													{
														OFFSET 5.403328 0.000000 0.000000
														CHANNELS 3 Xrotation Yrotation Zrotation
														End Site
														{
															OFFSET 0.000000 0.000000 0.000000
														}
													}
												}
											}
										}
										JOINT LeftHandRing1
										{
											OFFSET 22.908401 -0.839279 -6.020567
											CHANNELS 3 Xrotation Yrotation Zrotation
											JOINT LeftHandRing2
											{
												OFFSET 6.337502 0.000000 0.000000
												CHANNELS 3 Xrotation Yrotation Zrotation
												JOINT LeftHandRing3
												{
													OFFSET 5.779297 0.000000 0.000000
													CHANNELS 3 Xrotation Yrotation Zrotation
													JOINT LeftHandRing4
													{
														OFFSET 4.965698 0.000000 0.000000
														CHANNELS 3 Xrotation Yrotation Zrotation
														End Site
														{
															OFFSET 0.000000 0.000000 0.000000
														}
													}
												}
											}
										}
										JOINT LeftHandPinky1
										{
											OFFSET 20.037003 -1.530319 -10.950146
											CHANNELS 3 Xrotation Yrotation Zrotation
											JOINT LeftHandPinky2
											{
												OFFSET 5.254700 0.000000 0.000000
												CHANNELS 3 Xrotation Yrotation Zrotation
												JOINT LeftHandPinky3
												{
													OFFSET 4.810204 0.000000 0.000000
													CHANNELS 3 Xrotation Yrotation Zrotation
													JOINT LeftHandPinky4
													{
														OFFSET 3.647202 0.000000 0.000000
														CHANNELS 3 Xrotation Yrotation Zrotation
														End Site
														{
															OFFSET 0.000000 0.000000 0.000000
														}
													}
												}
											}
										}
									}
								}
							}
						}
					}
					JOINT RightShoulder
					{
						OFFSET -7.570500 7.247704 -3.868750
						CHANNELS 3 Xrotation Yrotation Zrotation
						JOINT RightShoulder_split
						{
							OFFSET -7.570500 7.247704 -3.868750
							CHANNELS 3 Xrotation Yrotation Zrotation
							JOINT RightArm
							{
								OFFSET -9.308998 -2.777710 0.208500
								CHANNELS 3 Xrotation Yrotation Zrotation
								JOINT RightForeArm
								{
									OFFSET -29.972300 0.000000 0.000000
									CHANNELS 3 Xrotation Yrotation Zrotation
									JOINT RightHand
									{
										OFFSET -26.026505 0.000000 0.000000
										CHANNELS 3 Xrotation Yrotation Zrotation
										JOINT RightHandThumb1
										{
											OFFSET -12.240601 -7.148026 9.207092
											CHANNELS 3 Xrotation Yrotation Zrotation
											JOINT RightHandThumb2
											{
												OFFSET -4.138618 -2.389435 2.389433
												CHANNELS 3 Xrotation Yrotation Zrotation
												JOINT RightHandThumb3
												{
													OFFSET -2.726974 -1.574417 1.574421
													CHANNELS 3 Xrotation Yrotation Zrotation
													JOINT RightHandThumb4
													{
														OFFSET -3.941010 -2.275345 2.275343
														CHANNELS 3 Xrotation Yrotation Zrotation
														End Site
														{
															OFFSET 0.000000 0.000000 0.000000
														}
													}
												}
											}
										}
										JOINT RightHandIndex1
										{
											OFFSET -24.424698 -1.985657 5.953444
											CHANNELS 3 Xrotation Yrotation Zrotation
											JOINT RightHandIndex2
											{
												OFFSET -6.426697 0.000000 0.000000
												CHANNELS 3 Xrotation Yrotation Zrotation
												JOINT RightHandIndex3
												{
													OFFSET -5.337898 0.000000 0.000000
													CHANNELS 3 Xrotation Yrotation Zrotation
													JOINT RightHandIndex4
													{
														OFFSET -4.409401 0.000000 0.000000
														CHANNELS 3 Xrotation Yrotation Zrotation
														End Site
														{
															OFFSET 0.000000 0.000000 0.000000
														}
													}
												}
											}
										}
										JOINT RightHandMiddle1
										{
											OFFSET -23.810097 0.000000 0.000000
											CHANNELS 3 Xrotation Yrotation Zrotation
											JOINT RightHandMiddle2
											{
												OFFSET -7.176498 0.000000 0.000000
												CHANNELS 3 Xrotation Yrotation Zrotation
												JOINT RightHandMiddle3
												{
													OFFSET -6.774902 0.000000 0.000000
													CHANNELS 3 Xrotation Yrotation Zrotation
													JOINT RightHandMiddle4
													{
														OFFSET -5.403328 0.000000 0.000000
														CHANNELS 3 Xrotation Yrotation Zrotation
														End Site
														{
															OFFSET 0.000000 0.000000 0.000000
														}
													}
												}
											}
										}
										JOINT RightHandRing1
										{
											OFFSET -22.908302 -0.839325 -6.020576
											CHANNELS 3 Xrotation Yrotation Zrotation
											JOINT RightHandRing2
											{
												OFFSET -6.337502 0.000000 0.000000
												CHANNELS 3 Xrotation Yrotation Zrotation
												JOINT RightHandRing3
												{
													OFFSET -5.779297 0.000000 0.000000
													CHANNELS 3 Xrotation Yrotation Zrotation
													JOINT RightHandRing4
													{
														OFFSET -4.965698 0.000000 0.000000
														CHANNELS 3 Xrotation Yrotation Zrotation
														End Site
														{
															OFFSET 0.000000 0.000000 0.000000
														}
													}
												}
											}
										}
										JOINT RightHandPinky1
										{
											OFFSET -20.037003 -1.530334 -10.950259
											CHANNELS 3 Xrotation Yrotation Zrotation
											JOINT RightHandPinky2
											{
												OFFSET -5.254700 0.000000 0.000000
												CHANNELS 3 Xrotation Yrotation Zrotation
												JOINT RightHandPinky3
												{
													OFFSET -4.810204 0.000000 0.000000
													CHANNELS 3 Xrotation Yrotation Zrotation
													JOINT RightHandPinky4
													{
														OFFSET -3.647202 0.000000 0.000000
														CHANNELS 3 Xrotation Yrotation Zrotation
														End Site
														{
															OFFSET 0.000000 0.000000 0.000000
														}
													}
												}
											}
										}
									}
								}
							}
						}
					}
				}
			}
		}
	}
	JOINT LeftUpLeg
	{
		OFFSET 15.427100 -6.655098 0.678600
		CHANNELS 3 Xrotation Yrotation Zrotation
		JOINT LeftLeg
		{
			OFFSET 4.081073 -39.591068 13.024000
			CHANNELS 3 Xrotation Yrotation Zrotation
			JOINT LeftFoot
			{
				OFFSET -4.081074 -37.707932 -15.979700
				CHANNELS 3 Xrotation Yrotation Zrotation
				JOINT LeftToeBase
				{
					OFFSET 5.346399 -15.068900 20.645000
					CHANNELS 3 Xrotation Yrotation Zrotation
					JOINT LeftToe_End
					{
						OFFSET 2.754700 0.931300 11.300900
						CHANNELS 3 Xrotation Yrotation Zrotation
						End Site
						{
							OFFSET 0.000000 0.000000 0.000000
						}
					}
				}
			}
		}
	}
	JOINT RightUpLeg
	{
		OFFSET -15.569500 -6.655098 0.678600
		CHANNELS 3 Xrotation Yrotation Zrotation
		JOINT RightLeg
		{
			OFFSET -4.081825 -39.591045 13.023800
			CHANNELS 3 Xrotation Yrotation Zrotation
			JOINT RightFoot
			{
				OFFSET 4.081824 -37.707954 -15.979600
				CHANNELS 3 Xrotation Yrotation Zrotation
				JOINT RightToeBase
				{
					OFFSET -5.346400 -15.068900 20.645000
					CHANNELS 3 Xrotation Yrotation Zrotation
					JOINT RightToe_End
					{
						OFFSET -2.754700 0.931300 11.300900
						CHANNELS 3 Xrotation Yrotation Zrotation
						End Site
						{
							OFFSET 0.000000 0.000000 0.000000
						}
					}
				}
			}
		}
	}
}
MOTION
Frames: 4
Frame Time: 0.016667
1.090973 93.910248 -2.170497 -3.420203 3.938698 -5.494873 7.493061 -0.121124 1.508941 -2.114713 -0.634067 1.955412 0.000000 0.000000 0.000000 -2.107417 -0.526125 1.991271 -6.842736 -2.682116 0.508892 2.526783 0.702883 0.466853 0.000000 -0.000000 0.000000 1.091370 1.577359 -3.543032 0.000000 0.000000 0.000000 -1.207960 1.492937 -78.012761 20.698680 -13.799226 -0.079241 -0.026780 -3.262853 -0.409706 10.557715 -2.873387 25.085808 -5.464169 26.111890 -7.055801 -6.646965 3.833429 -2.621016 0.000000 0.000000 0.000001 2.372204 3.636009 -10.145444 -2.155744 2.456257 -20.339718 -1.885483 4.845578 -16.122638 -0.000002 0.000001 -0.000003 -1.984304 5.666074 -18.668025 0.262864 5.090461 -32.022430 -0.652732 1.126034 -16.743422 0.000000 -0.000001 -0.000001 -4.974573 10.107089 -16.316142 4.008929 4.056162 -38.803695 2.114504 3.156540 -21.139543 -0.000001 0.000000 -0.000001 -6.472579 11.328361 -26.083977 10.736405 2.575060 -37.642532 6.431064 3.097692 -18.098618 -0.000001 -0.000000 0.000001 0.487466 5.285028 4.298001 0.000000 0.000000 0.000000 -7.282516 4.832119 74.584826 13.988541 13.383145 -4.466956 0.106867 3.530086 -2.699062 15.566069 -0.729087 -16.762771 -6.579400 -24.370067 7.035625 -11.554961 5.741401 5.172643 -0.000003 -0.000001 0.000007 2.252301 -2.297209 4.747737 -2.162982 -2.444713 14.947869 -1.899821 -4.850718 10.729855 -0.000000 -0.000000 -0.000000 -1.986996 -5.675761 8.743288 0.263313 -5.087435 22.099629 -0.663553 -1.134444 6.819826 0.000001 0.000000 -0.000000 -4.977275 -10.114504 7.762303 4.005861 -4.045810 30.251031 2.108934 -3.152167 12.586685 -0.000002 0.000000 -0.000002 -6.472728 -11.324481 16.980596 10.704469 -2.553589 28.536088 6.417419 -3.075726 8.993301 0.000003 -0.000002 0.000000 -24.961118 -10.780694 0.835081 48.301523 0.414930 0.355438 17.594605 2.118104 10.734572 -28.609852 0.488521 -7.662416 -0.000001 0.000001 -0.000000 -12.269465 -11.282026 10.696668 32.473301 0.765751 -0.383667 7.237899 -1.477334 -7.636055 -26.816813 1.229525 -0.013313 0.000000 -0.000000 -0.000000 
1.156929 94.535500 -0.674421 -3.034335 3.316340 -4.803415 7.156738 0.062533 1.090357 -2.090693 -0.448767 1.814105 0.000000 0.000000 0.000000 -2.078974 -0.346472 1.846579 -6.918093 -2.365405 0.359196 2.758873 0.881739 0.742510 -0.000000 0.000000 0.000000 1.113567 2.099115 -3.775543 0.000000 0.000000 0.000000 -1.049471 1.509236 -77.890781 22.585013 -13.984391 0.425080 -0.073497 -2.782485 -1.181343 10.559563 -2.850880 25.087973 -5.399136 26.208083 -7.056692 -6.608770 3.909420 -2.603647 0.000000 -0.000000 -0.000001 2.371332 3.631456 -10.250493 -2.155569 2.457891 -20.421248 -1.885403 4.845962 -16.204267 -0.000001 -0.000000 -0.000002 -1.983716 5.667488 -18.758739 0.262902 5.090881 -32.139356 -0.652633 1.128114 -16.860320 -0.000001 -0.000000 -0.000001 -4.974858 10.106018 -16.411104 4.008884 4.055676 -38.919688 2.115097 3.156112 -21.255526 -0.000000 0.000002 -0.000003 -6.469988 11.329333 -26.177427 10.735003 2.574672 -37.767196 6.430261 3.097243 -18.223254 0.000000 0.000000 -0.000002 0.496336 5.504696 4.289107 0.000000 0.000000 0.000000 -7.589864 5.574937 74.483807 15.755872 14.490844 -5.636437 0.036790 2.963959 -2.025676 15.550751 -0.718104 -16.790109 -6.612687 -24.317531 7.035348 -11.558471 5.748787 5.175957 -0.000001 -0.000001 0.000002 2.246698 -2.245054 4.764500 -2.162969 -2.443902 14.905578 -1.901192 -4.850230 10.687514 -0.000001 -0.000000 0.000000 -1.995178 -5.622325 8.773652 0.264320 -5.087730 22.134524 -0.663601 -1.135054 6.854695 -0.000002 0.000000 0.000000 -4.977505 -10.115047 7.789051 4.005070 -4.044425 30.441777 2.109410 -3.151007 12.777396 -0.000001 -0.000001 0.000000 -6.472024 -11.324892 17.009229 10.695595 -2.560176 28.880150 6.409930 -3.081931 9.336461 0.000001 -0.000001 0.000002 -26.444534 -9.587901 0.253064 45.287491 0.805020 0.388691 17.448932 2.096321 10.413332 -27.517963 0.236182 -5.172458 -0.000001 -0.000000 0.000000 -11.014746 -11.631045 9.923742 31.522573 2.217489 -0.313410 6.672256 -1.642455 -8.004236 -27.169980 1.203624 0.314521 0.000000 0.000000 0.000000 
1.199518 95.384644 0.916831 -2.710361 2.820090 -4.282580 6.862836 0.226110 0.937367 -2.080432 -0.313499 1.675652 0.000000 0.000000 0.000000 -2.058832 -0.215385 1.707925 -6.824234 -1.991732 0.148009 2.570388 1.192968 0.558138 0.000000 -0.000000 -0.000000 1.161758 2.620607 -4.138579 0.000000 0.000000 0.000000 -0.675547 1.681684 -77.753999 23.741085 -14.201291 0.898229 -0.068917 -3.014302 -2.607523 10.564698 -2.788212 25.093973 -5.218051 26.476047 -7.060059 -6.502709 4.121098 -2.555616 -0.000000 -0.000001 -0.000001 2.368900 3.618896 -10.542928 -2.155427 2.457283 -20.648562 -1.885186 4.847060 -16.431483 0.000001 -0.000001 -0.000001 -1.982022 5.665981 -19.011647 0.263188 5.092148 -32.464763 -0.651849 1.128068 -17.185799 -0.000001 0.000001 0.000003 -4.975663 10.103253 -16.675528 4.008801 4.054419 -39.242435 2.116754 3.155001 -21.578400 -0.000001 0.000002 0.000000 -6.467939 11.326185 -26.437530 10.731171 2.573536 -38.114320 6.428124 3.096097 -18.570193 -0.000000 -0.000002 -0.000000 0.521029 5.806646 4.065539 0.000000 0.000000 0.000000 -8.045854 5.987355 74.740356 12.972003 13.640117 -3.836559 0.904503 8.387686 -8.131738 15.508213 -0.687428 -16.866087 -6.705426 -24.171365 7.034813 -11.568190 5.769276 5.185189 -0.000000 0.000001 -0.000001 2.231049 -2.099807 4.811213 -2.162877 -2.441591 14.788000 -1.900854 -4.849365 10.569778 -0.000000 -0.000000 0.000000 -2.018306 -5.473580 8.858209 0.267196 -5.088515 22.231808 -0.663803 -1.136782 6.951791 0.000000 -0.000000 -0.000001 -4.977009 -10.116605 7.863838 4.003004 -4.040804 30.972572 2.110808 -3.147932 13.308414 -0.000000 -0.000000 -0.000002 -6.469961 -11.326053 17.089074 10.673228 -2.578292 29.837586 6.390552 -3.099054 10.291599 -0.000004 -0.000002 -0.000000 -27.323526 -8.048845 -0.158640 40.829242 0.376886 0.298046 18.174920 1.905394 9.664896 -26.321242 0.075603 -2.675950 -0.000000 -0.000000 0.000001 -9.167669 -12.087465 9.225412 29.751276 3.392530 -0.186366 6.275493 -1.677171 -8.144176 -27.700519 1.173364 0.505493 -0.000000 0.000000 -0.000000 
1.273695 96.061378 2.383870 -2.339750 2.234832 -3.846363 6.703175 0.388235 0.929703 -2.159529 -0.186708 1.502791 0.000000 0.000000 0.000000 -2.121955 -0.096244 1.529946 -6.735155 -1.547358 -0.209004 2.544873 1.437755 0.726827 -0.000000 0.000000 -0.000000 1.230187 3.222549 -4.608724 0.000000 0.000000 0.000000 -0.356309 1.988795 -77.531957 24.130881 -14.364894 1.193107 -0.087113 -2.860545 -3.564228 10.572523 -2.692721 25.103131 -4.941855 26.884907 -7.067658 -6.341509 4.444069 -2.483250 0.000000 -0.000000 -0.000000 2.365290 3.599900 -10.988816 -2.155219 2.456404 -20.995078 -1.884890 4.848726 -16.777774 -0.000001 0.000000 0.000000 -1.979305 5.663886 -19.397189 0.263532 5.094018 -32.960826 -0.650614 1.128068 -17.681982 -0.000001 -0.000001 -0.000000 -4.973508 10.099545 -17.079219 4.008752 4.052775 -39.734496 2.119423 3.153525 -22.070570 0.000001 0.000000 -0.000001 -6.465143 11.321811 -26.833911 10.726123 2.572105 -38.643308 6.425277 3.094571 -19.099005 -0.000002 -0.000000 -0.000000 0.556173 6.268261 3.845602 0.000000 0.000000 0.000000 -8.206175 7.015578 74.793686 12.132277 14.618275 -3.985064 0.884274 7.994532 -8.002554 15.443481 -0.640615 -16.981957 -6.846829 -23.948655 7.034677 -11.585108 5.800459 5.195333 0.000001 -0.000001 -0.000001 2.207212 -1.878364 4.882419 -2.162685 -2.438015 14.608701 -1.900314 -4.847947 10.390389 -0.000000 -0.000001 -0.000001 -2.054337 -5.247020 8.987138 0.267249 -5.087486 22.379866 -0.664155 -1.139444 7.099765 0.000001 -0.000002 -0.000002 -4.976074 -10.118963 7.977840 4.000137 -4.036015 31.781683 2.108478 -3.144163 14.117584 0.000000 0.000000 0.000001 -6.466771 -11.327794 17.210700 10.645745 -2.605219 31.296268 6.365596 -3.124784 11.747157 0.000005 -0.000002 -0.000001 -28.330872 -6.299518 -0.565299 36.682685 0.199230 0.302568 19.628142 1.696706 10.268256 -25.412240 0.025321 -0.801885 -0.000000 -0.000000 -0.000001 -7.716073 -13.651429 8.701302 28.335045 5.609936 -0.078623 6.162201 -1.607186 -9.167120 -27.628354 1.148533 1.134131 -0.000000 0.000000 0.000000 
